<svg version="1.1" xmlns="http://www.w3.org/2000/svg" style="display: block;" viewBox="0 0 570 570" width="570" height="470" preserveAspectRatio="xMidYMid meet">
<path transform="translate(-750,-360)" fill="rgb(0,0,0)" d="M 958.61 404.235 C 981.173 402.948 1000.99 404.515 1021.01 416.157 C 1046.02 430.701 1059.96 453.265 1067.25 480.55 C 1090.14 489.472 1133.78 502.231 1152.81 514.674 C 1161.99 520.674 1169.62 528.782 1175.04 538.323 C 1183.67 553.627 1186.32 574.416 1181.46 591.35 C 1177.33 605.769 1153.77 643.382 1140.65 650.561 C 1136.65 652.756 1132.11 653.73 1127.68 652.194 C 1122.63 650.443 1117.08 646.87 1115.03 641.761 C 1107.96 624.113 1135.96 600.326 1142.66 584.781 C 1146.01 577.003 1146.68 568.06 1143.32 560.157 C 1141.05 554.808 1136.95 550.407 1132.17 547.187 C 1118.9 538.265 1083.75 527.797 1066.61 521.122 C 1064.07 530.116 1060.53 538.319 1056.34 546.642 C 1067.75 554.906 1088.89 564.038 1093.74 578.093 C 1095.15 582.154 1095.34 586.652 1093.28 590.537 C 1089.68 597.33 1081.95 600.4 1075.05 602.477 C 1059.04 596.908 1044.79 585.284 1030.8 575.84 C 1024.99 579.857 1018.99 583.558 1012.55 586.502 C 987.809 597.82 961.897 597.499 936.747 588.179 C 925.524 598.027 890.634 625.399 878.352 631.425 C 875.209 632.968 872.101 633.718 868.575 633.38 C 862.972 632.842 857.913 629.467 854.442 625.149 C 851.781 621.839 850.338 617.854 850.905 613.596 C 852.887 598.697 875.381 586.449 886.623 578.282 L 903.284 565.804 C 896.57 557.758 891.067 549.617 885.866 540.538 L 829.266 574.352 C 819.245 580.335 808.318 585.952 798.987 592.945 C 795.449 595.596 792.15 598.575 790.059 602.532 C 785.716 610.749 786.206 621.367 791.731 628.936 C 802.736 644.014 863.084 670.78 883.573 689.128 C 896.27 700.496 905.635 715.103 910.667 731.386 C 914.904 745.056 919.253 791.312 912.378 803.275 C 908.675 809.719 902.574 811.607 895.86 813.577 C 859.259 803.458 889.521 757.884 866.477 727.177 C 842.771 695.589 778.336 681.679 757.785 647.107 C 749.044 632.514 746.541 615.017 750.841 598.558 C 753.521 588.19 758.863 577.918 766.377 570.228 C 779.177 557.127 798.519 547.975 814.144 538.616 L 876.579 501.385 C 877.19 480.649 882.349 461.09 894.345 443.919 C 909.57 422.124 932.598 408.719 958.61 404.235 z"/>
<path transform="translate(-750,-360)" fill="rgb(248,248,248)" d="M 962.356 442.606 C 993.568 436.84 1023.56 457.43 1029.39 488.63 C 1035.22 519.83 1014.7 549.863 983.507 555.761 C 952.226 561.677 922.084 541.076 916.234 509.782 C 910.385 478.488 931.05 448.39 962.356 442.606 z"/>
<path transform="translate(-750,-360)" fill="rgb(0,0,0)" d="M 1074.15 685.126 C 1075.55 685.013 1076.94 684.927 1078.34 684.869 C 1120.56 683.417 1163.22 684.67 1205.5 684.659 C 1224.93 684.655 1259.79 682.609 1277.8 685.621 C 1284.17 686.686 1289.96 689.962 1294.63 694.354 C 1301.36 700.664 1305.44 708.933 1305.56 718.206 C 1305.63 723.418 1304.62 728.486 1303.26 733.492 C 1297.81 753.437 1289.81 773.135 1283.29 792.785 C 1277.28 810.866 1272.47 830.537 1264.81 847.925 C 1262.1 854.06 1258.65 859.77 1253.87 864.519 C 1248.5 869.845 1241.89 873.227 1234.54 874.929 C 1217.5 878.877 1169.65 876.494 1149.5 876.437 L 1005.71 876.454 C 979.769 876.458 952.98 877.907 927.15 875.779 C 924.972 874.461 922.954 873.011 921.088 871.279 C 917.229 867.696 915.642 863.345 915.544 858.138 C 915.449 853.139 916.545 848.633 920.153 844.969 C 923.384 841.688 927.829 839.749 932.288 838.829 C 947.177 835.757 980.682 838.091 997.419 838.234 L 1025.68 753.255 C 1030.82 737.807 1035.09 719.337 1043.43 705.368 C 1050.43 693.636 1061.32 688.304 1074.15 685.126 z"/>
<path transform="translate(-750,-360)" fill="rgb(248,248,248)" d="M 1078.29 723.16 C 1100.46 722.383 1122.82 722.925 1145.02 722.926 L 1266.04 722.95 C 1260.08 744.753 1251.87 766.412 1244.74 787.89 C 1239.59 803.427 1234.85 824.2 1226.88 838.066 C 1163.97 838.784 1100.99 838.158 1038.07 838.133 C 1043.37 818.56 1050.92 798.996 1057.32 779.722 C 1062.94 762.753 1067.77 744.643 1074.71 728.196 C 1075.55 726.196 1076.68 724.63 1078.29 723.16 z"/>
</svg>